<svg xmlns="http://www.w3.org/2000/svg" xmlns:xlink="http://www.w3.org/1999/xlink" viewBox="0 0 198.72 198.99"><defs><linearGradient id="a" x1="214" y1="513.02" x2="214" y2="314.3" gradientUnits="userSpaceOnUse"><stop offset="0" stop-color="#0b82b9"/><stop offset="1" stop-color="#101d2d"/></linearGradient><linearGradient id="b" x1="214.16" y1="458.21" x2="214.16" y2="362.77" gradientUnits="userSpaceOnUse"><stop offset="0" stop-color="#979696"/><stop offset="1" stop-color="#c3c0bf"/></linearGradient></defs><title>Dan-Logo</title><path d="M214.3,314.4c58.52,1.63,99.37,46.32,99.06,100.3-.33,55-43.72,99-99.92,98.69-56.41-.32-99.16-45.05-98.8-99.8C115,359.11,156.61,315.63,214.3,314.4Z" transform="translate(-114.64 -314.4)" style="fill:url(#a)"/><path d="M264.43,419c0,25.92-20,48.06-45.43,50.33a50.38,50.38,0,0,1-54.47-40.9c-3.16-16.49.95-31.16,12.36-43.34,11-11.79,22.75-23,34.05-34.52,2.28-2.32,3.8-2.36,6.1,0,11.29,11.56,22.9,22.82,34.07,34.5C260.1,394.46,264.44,405.94,264.43,419ZM214,362.77c-10.81,11.22-21.39,21.37-31,32.38-8.49,9.77-10.1,21.65-7,34.17a39.06,39.06,0,0,0,43.79,28.4c14.4-2.23,24.48-10.18,30.19-23.17,5.82-13.26,4.91-26.89-4.17-38.14C236.41,384.69,225.17,374.39,214,362.77Z" transform="translate(-114.64 -314.4)" style="fill:#fff"/><path d="M214,362.77c11.14,11.62,22.38,21.92,31.85,33.64,9.08,11.25,10,24.88,4.17,38.14-5.71,13-15.79,20.94-30.19,23.17a39.06,39.06,0,0,1-43.79-28.4c-3.11-12.52-1.5-24.4,7-34.17C192.64,384.14,203.22,374,214,362.77Z" transform="translate(-114.64 -314.4)" style="fill:url(#b)"/></svg>